<svg xmlns="http://www.w3.org/2000/svg" xmlns:xlink="http://www.w3.org/1999/xlink" width="180" zoomAndPan="magnify" viewBox="0 0 135 135.000003" height="180" preserveAspectRatio="xMidYMid meet" version="1.0"><defs><clipPath id="b951d26fca"><path d="M 8.117188 7.621094 L 126.882812 7.621094 L 126.882812 126.386719 L 8.117188 126.386719 Z M 8.117188 7.621094 " clip-rule="nonzero"/></clipPath><clipPath id="cbe4f6331a"><path d="M 14.816406 7.621094 L 120.183594 7.621094 C 121.960938 7.621094 123.664062 8.328125 124.921875 9.582031 C 126.175781 10.839844 126.882812 12.542969 126.882812 14.320312 L 126.882812 119.6875 C 126.882812 121.464844 126.175781 123.167969 124.921875 124.425781 C 123.664062 125.679688 121.960938 126.386719 120.183594 126.386719 L 14.816406 126.386719 C 13.039062 126.386719 11.335938 125.679688 10.078125 124.425781 C 8.824219 123.167969 8.117188 121.464844 8.117188 119.6875 L 8.117188 14.320312 C 8.117188 12.542969 8.824219 10.839844 10.078125 9.582031 C 11.335938 8.328125 13.039062 7.621094 14.816406 7.621094 Z M 14.816406 7.621094 " clip-rule="nonzero"/></clipPath><clipPath id="6b34c9cb7e"><path d="M 20 19 L 115.519531 19 L 115.519531 115 L 20 115 Z M 20 19 " clip-rule="nonzero"/></clipPath></defs><g clip-path="url(#b951d26fca)"><g clip-path="url(#cbe4f6331a)"><path fill="#706f6f" d="M 8.117188 7.621094 L 126.882812 7.621094 L 126.882812 126.386719 L 8.117188 126.386719 Z M 8.117188 7.621094 " fill-opacity="1" fill-rule="nonzero"/></g></g><g clip-path="url(#6b34c9cb7e)"><path fill="#d1cece" d="M 41.371094 45.292969 C 41.371094 44.433594 41.414062 43.574219 41.5 42.71875 C 41.582031 41.863281 41.710938 41.015625 41.878906 40.171875 C 42.046875 39.328125 42.257812 38.496094 42.507812 37.671875 C 42.757812 36.847656 43.046875 36.042969 43.375 35.246094 C 43.703125 34.453125 44.074219 33.675781 44.476562 32.917969 C 44.882812 32.160156 45.324219 31.421875 45.804688 30.707031 C 46.28125 29.992188 46.792969 29.304688 47.339844 28.640625 C 47.882812 27.972656 48.460938 27.339844 49.070312 26.730469 C 49.675781 26.121094 50.3125 25.546875 50.976562 25 C 51.640625 24.453125 52.332031 23.941406 53.046875 23.464844 C 53.761719 22.984375 54.496094 22.542969 55.257812 22.136719 C 56.015625 21.734375 56.789062 21.363281 57.585938 21.035156 C 58.378906 20.707031 59.1875 20.414062 60.011719 20.164062 C 60.832031 19.914062 61.664062 19.707031 62.507812 19.539062 C 63.351562 19.367188 64.203125 19.242188 65.058594 19.15625 C 65.914062 19.070312 66.769531 19.027344 67.628906 19.027344 C 102.339844 20.253906 102.410156 70.21875 67.71875 71.554688 C 66.859375 71.554688 65.996094 71.515625 65.140625 71.433594 C 64.28125 71.351562 63.429688 71.226562 62.585938 71.058594 C 61.738281 70.894531 60.90625 70.6875 60.078125 70.4375 C 59.253906 70.191406 58.441406 69.902344 57.648438 69.574219 C 56.851562 69.246094 56.070312 68.878906 55.308594 68.472656 C 54.550781 68.070312 53.808594 67.628906 53.09375 67.152344 C 52.375 66.671875 51.683594 66.164062 51.015625 65.617188 C 50.347656 65.070312 49.710938 64.496094 49.101562 63.886719 C 48.488281 63.277344 47.910156 62.640625 47.363281 61.976562 C 46.816406 61.3125 46.300781 60.621094 45.820312 59.90625 C 45.34375 59.1875 44.898438 58.449219 44.492188 57.691406 C 44.082031 56.933594 43.714844 56.15625 43.382812 55.359375 C 43.054688 54.5625 42.761719 53.753906 42.511719 52.929688 C 42.257812 52.105469 42.050781 51.269531 41.878906 50.425781 C 41.710938 49.582031 41.582031 48.730469 41.5 47.871094 C 41.414062 47.015625 41.371094 46.15625 41.371094 45.292969 Z M 94.210938 71.566406 C 93.859375 71.351562 93.488281 71.191406 93.09375 71.085938 C 92.695312 70.976562 92.292969 70.929688 91.882812 70.941406 C 91.472656 70.949219 91.074219 71.019531 90.683594 71.144531 C 90.292969 71.269531 89.925781 71.449219 89.589844 71.679688 C 88.804688 72.316406 87.996094 72.914062 87.164062 73.480469 C 86.328125 74.046875 85.472656 74.574219 84.59375 75.066406 C 83.714844 75.558594 82.816406 76.011719 81.894531 76.425781 C 80.976562 76.839844 80.042969 77.214844 79.09375 77.546875 C 78.140625 77.882812 77.179688 78.175781 76.203125 78.425781 C 75.226562 78.675781 74.242188 78.882812 73.246094 79.050781 C 72.253906 79.214844 71.253906 79.335938 70.25 79.417969 C 69.246094 79.496094 68.238281 79.53125 67.230469 79.527344 C 66.222656 79.519531 65.21875 79.46875 64.214844 79.375 C 63.210938 79.28125 62.214844 79.144531 61.222656 78.964844 C 60.230469 78.785156 59.25 78.5625 58.277344 78.296875 C 57.304688 78.035156 56.34375 77.730469 55.398438 77.382812 C 54.453125 77.035156 53.523438 76.648438 52.613281 76.21875 C 51.699219 75.792969 50.804688 75.328125 49.933594 74.824219 C 49.0625 74.320312 48.210938 73.78125 47.386719 73.203125 C 46.558594 72.625 45.761719 72.011719 44.988281 71.367188 C 44.394531 71.09375 43.773438 70.976562 43.125 71.011719 C 42.472656 71.042969 41.867188 71.226562 41.308594 71.558594 C 39.691406 72.636719 38.148438 73.804688 36.675781 75.070312 C 35.203125 76.335938 33.816406 77.6875 32.511719 79.121094 C 31.207031 80.558594 29.996094 82.070312 28.878906 83.65625 C 27.757812 85.242188 26.742188 86.890625 25.828125 88.601562 C 24.910156 90.3125 24.105469 92.074219 23.40625 93.882812 C 22.710938 95.695312 22.125 97.539062 21.65625 99.421875 C 21.183594 101.304688 20.832031 103.210938 20.597656 105.136719 C 20.363281 107.0625 20.246094 108.996094 20.25 110.9375 C 20.25 111.203125 20.273438 111.464844 20.328125 111.722656 C 20.378906 111.984375 20.453125 112.234375 20.554688 112.480469 C 20.65625 112.726562 20.78125 112.957031 20.929688 113.179688 C 21.078125 113.398438 21.242188 113.601562 21.429688 113.789062 C 21.617188 113.976562 21.820312 114.144531 22.042969 114.292969 C 22.261719 114.4375 22.496094 114.5625 22.738281 114.664062 C 22.984375 114.765625 23.238281 114.84375 23.496094 114.894531 C 23.757812 114.945312 24.019531 114.972656 24.285156 114.972656 L 111.109375 114.972656 C 111.375 114.972656 111.636719 114.945312 111.898438 114.894531 C 112.15625 114.84375 112.410156 114.765625 112.65625 114.664062 C 112.898438 114.5625 113.132812 114.4375 113.351562 114.292969 C 113.574219 114.144531 113.777344 113.976562 113.964844 113.789062 C 114.152344 113.601562 114.320312 113.398438 114.464844 113.179688 C 114.613281 112.957031 114.738281 112.726562 114.839844 112.480469 C 114.941406 112.234375 115.015625 111.984375 115.066406 111.722656 C 115.121094 111.464844 115.144531 111.203125 115.144531 110.9375 C 115.144531 109 115.023438 107.070312 114.789062 105.148438 C 114.550781 103.226562 114.199219 101.328125 113.726562 99.449219 C 113.257812 97.570312 112.675781 95.726562 111.984375 93.921875 C 111.289062 92.113281 110.488281 90.355469 109.578125 88.644531 C 108.667969 86.9375 107.660156 85.289062 106.550781 83.703125 C 105.4375 82.117188 104.238281 80.601562 102.941406 79.164062 C 101.648438 77.722656 100.269531 76.371094 98.808594 75.097656 C 97.347656 73.828125 95.816406 72.648438 94.210938 71.566406 Z M 94.210938 71.566406 " fill-opacity="1" fill-rule="nonzero"/></g></svg>