<svg width="108" height="118" viewBox="0 0 108 118" fill="none" xmlns="http://www.w3.org/2000/svg">
<path d="M102 48.6667H6M75.3333 6V27.3333M32.6667 6V27.3333M31.6 112.667H76.4C85.3608 112.667 89.8413 112.667 93.2638 110.923C96.2744 109.389 98.7221 106.941 100.256 103.931C102 100.508 102 96.0275 102 87.0667V42.2667C102 33.3058 102 28.8254 100.256 25.4028C98.7221 22.3922 96.2744 19.9445 93.2638 18.4106C89.8413 16.6667 85.3608 16.6667 76.4 16.6667H31.6C22.6392 16.6667 18.1587 16.6667 14.7362 18.4106C11.7256 19.9445 9.27787 22.3922 7.7439 25.4028C6 28.8254 6 33.3058 6 42.2667V87.0667C6 96.0275 6 100.508 7.7439 103.931C9.27787 106.941 11.7256 109.389 14.7362 110.923C18.1587 112.667 22.6392 112.667 31.6 112.667Z" stroke="black" stroke-width="10.6667" stroke-linecap="round" stroke-linejoin="round"/>
</svg>
