<svg width="106" height="106" viewBox="0 0 106 106" fill="none" xmlns="http://www.w3.org/2000/svg">
<path d="M6 100L32.9878 89.6201C34.714 88.9562 35.577 88.6242 36.3845 88.1908C37.1018 87.8057 37.7856 87.3614 38.4287 86.8623C39.1527 86.3005 39.8066 85.6466 41.1144 84.3388L95.9712 29.4821C101.343 24.1103 101.343 15.4008 95.9712 10.0289C90.5994 4.65704 81.8899 4.65703 76.518 10.0289L21.6612 64.8856C20.3534 66.1934 19.6995 66.8472 19.1377 67.5713C18.6386 68.2144 18.1942 68.8982 17.8092 69.6155C17.3758 70.423 17.0438 71.2861 16.3799 73.0122L6 100ZM6 100L16.0093 73.9763C16.7255 72.114 17.0836 71.1829 17.6979 70.7564C18.2347 70.3837 18.8989 70.2427 19.5409 70.3653C20.2754 70.5056 20.9808 71.211 22.3917 72.6218L33.3783 83.6085C34.7892 85.0193 35.4946 85.7247 35.6348 86.4593C35.7574 87.1012 35.6165 87.7654 35.2437 88.3022C34.8172 88.9165 33.8861 89.2746 32.0239 89.9909L6 100Z" stroke="#757575" stroke-width="10.1833" stroke-linecap="round" stroke-linejoin="round"/>
</svg>
