<svg width="71" height="71" viewBox="0 0 71 71" fill="none" xmlns="http://www.w3.org/2000/svg">
<path fill-rule="evenodd" clip-rule="evenodd" d="M14.42 0.780273H56.2151C63.9094 0.780273 70.1468 7.01771 70.1468 14.712V56.5071C70.1468 64.2014 63.9094 70.4388 56.2151 70.4388H14.42C6.72572 70.4388 0.488281 64.2014 0.488281 56.5071V14.712C0.488281 7.01771 6.72572 0.780273 14.42 0.780273ZM62.1505 62.4425C63.7246 60.8683 64.609 58.7333 64.609 56.5071V14.712C64.609 12.4858 63.7246 10.3508 62.1505 8.77663C60.5763 7.20248 58.4413 6.31813 56.2151 6.31813H14.42C9.78419 6.31813 6.02614 10.0762 6.02614 14.712V56.5071C6.02614 58.7333 6.91049 60.8683 8.48464 62.4425C10.0588 64.0166 12.1938 64.901 14.42 64.901H56.2151C58.4413 64.901 60.5763 64.0166 62.1505 62.4425Z" fill="black"/>
<path d="M49.2493 32.9973H37.9297V21.6778C37.9297 20.2352 36.7602 19.0656 35.3176 19.0656C33.8749 19.0656 32.7054 20.2352 32.7054 21.6778V32.9973H21.3858C19.9432 32.9973 18.7736 34.1669 18.7736 35.6095C18.7736 37.0522 19.9432 38.2217 21.3858 38.2217H32.7054V49.5412C32.7054 50.9839 33.8749 52.1534 35.3176 52.1534C36.7602 52.1534 37.9297 50.9839 37.9297 49.5412V38.2217H49.2493C50.6919 38.2217 51.8615 37.0522 51.8615 35.6095C51.8615 34.1669 50.6919 32.9973 49.2493 32.9973Z" fill="black"/>
</svg>
