<svg width="69" height="72" viewBox="0 0 69 72" fill="none" xmlns="http://www.w3.org/2000/svg">
<path fill-rule="evenodd" clip-rule="evenodd" d="M20.9372 3.53006C20.9372 1.6646 19.4249 0.152344 17.5595 0.152344C15.694 0.152344 14.1818 1.6646 14.1818 3.53006V6.90778H10.804C8.11657 6.90778 5.53916 7.97537 3.63883 9.87571C1.73849 11.776 0.670898 14.3534 0.670898 17.0409V60.9512C0.670898 63.6387 1.73849 66.2161 3.63883 68.1165C5.53916 70.0168 8.11657 71.0844 10.804 71.0844H58.0921C60.7796 71.0844 63.357 70.0168 65.2573 68.1165C67.1576 66.2161 68.2252 63.6387 68.2252 60.9512V17.0409C68.2252 14.3534 67.1576 11.776 65.2573 9.87571C63.357 7.97537 60.7796 6.90778 58.0921 6.90778H56.4032C54.5378 6.90778 53.0255 8.42003 53.0255 10.2855C53.0255 12.151 54.5378 13.6632 56.4032 13.6632H58.0921C58.9879 13.6632 59.847 14.0191 60.4805 14.6525C61.1139 15.286 61.4698 16.1451 61.4698 17.0409V27.1741H7.42633V17.0409C7.42633 16.1451 7.7822 15.286 8.41564 14.6525C9.04909 14.0191 9.90822 13.6632 10.804 13.6632H14.1818V17.0409C14.1818 18.9064 15.694 20.4186 17.5595 20.4186C19.4249 20.4186 20.9372 18.9064 20.9372 17.0409V3.53006ZM8.41564 63.3396C7.7822 62.7062 7.42633 61.8471 7.42633 60.9512V33.9295H61.4698V60.9512C61.4698 61.8471 61.1139 62.7062 60.4805 63.3396C59.847 63.9731 58.9879 64.329 58.0921 64.329H10.804C9.90822 64.329 9.04909 63.9731 8.41564 63.3396Z" fill="black"/>
<path d="M47.9589 3.53006C47.9589 1.6646 46.4467 0.152344 44.5812 0.152344C42.7158 0.152344 41.2035 1.6646 41.2035 3.53006V6.90778H29.3815C27.516 6.90778 26.0038 8.42003 26.0038 10.2855C26.0038 12.151 27.516 13.6632 29.3815 13.6632H41.2035V17.0409C41.2035 18.9064 42.7158 20.4186 44.5812 20.4186C46.4467 20.4186 47.9589 18.9064 47.9589 17.0409V3.53006Z" fill="black"/>
</svg>
