<svg width="82" height="82" viewBox="0 0 82 82" fill="none" xmlns="http://www.w3.org/2000/svg">
<path d="M27.9384 30.4172C26.0729 30.4172 24.5607 31.9295 24.5607 33.795C24.5607 35.6604 26.0729 37.1727 27.9384 37.1727H54.9601C56.8256 37.1727 58.3378 35.6604 58.3378 33.795C58.3378 31.9295 56.8256 30.4172 54.9601 30.4172H27.9384Z" fill="#757575"/>
<path d="M27.9384 43.9281C26.0729 43.9281 24.5607 45.4404 24.5607 47.3058C24.5607 49.1713 26.0729 50.6836 27.9384 50.6836H41.4493C43.3147 50.6836 44.827 49.1713 44.827 47.3058C44.827 45.4404 43.3147 43.9281 41.4493 43.9281H27.9384Z" fill="#757575"/>
<path d="M27.9384 57.439C26.0729 57.439 24.5607 58.9512 24.5607 60.8167C24.5607 62.6822 26.0729 64.1944 27.9384 64.1944H54.9601C56.8256 64.1944 58.3378 62.6822 58.3378 60.8167C58.3378 58.9512 56.8256 57.439 54.9601 57.439H27.9384Z" fill="#757575"/>
<path fill-rule="evenodd" clip-rule="evenodd" d="M71.4392 17.3711C71.1674 16.7132 70.7683 16.1155 70.2649 15.6124L59.6334 4.98078C58.6208 3.96699 57.2471 3.39677 55.8143 3.39551H16.4542C15.0208 3.39551 13.6462 3.96489 12.6327 4.9784C11.6192 5.99192 11.0498 7.36653 11.0498 8.79986V72.3009C11.0498 73.0107 11.1896 73.7134 11.4612 74.3691C11.7328 75.0248 12.1309 75.6206 12.6327 76.1224C13.1345 76.6242 13.7303 77.0223 14.386 77.2939C15.0417 77.5655 15.7445 77.7053 16.4542 77.7053H66.4444C67.1541 77.7053 67.8568 77.5655 68.5125 77.2939C69.1682 77.0223 69.764 76.6242 70.2658 76.1224C70.7677 75.6206 71.1657 75.0248 71.4373 74.3691C71.7089 73.7134 71.8487 73.0106 71.8487 72.3009V19.4407L68.471 19.4397L71.8487 19.4479L71.8487 19.4407C71.8495 18.7307 71.7104 18.0274 71.4392 17.3711ZM51.5824 18.5952C51.5824 21.3934 53.8508 23.6618 56.649 23.6618H65.0933V70.9499H17.8052V10.1509H51.5824V18.5952ZM62.0053 16.9064L58.3378 13.2389V16.9064H62.0053Z" fill="#757575"/>
</svg>
