<svg width="136" height="136" viewBox="0 0 136 136" fill="none" xmlns="http://www.w3.org/2000/svg">
<rect x="0.707031" width="135.22" height="135.22" rx="40.9756" fill="#DCDDE9"/>
<path fill-rule="evenodd" clip-rule="evenodd" d="M47.42 32.7803H89.2151C96.9094 32.7803 103.147 39.0177 103.147 46.712V88.5071C103.147 96.2014 96.9094 102.439 89.2151 102.439H47.42C39.7257 102.439 33.4883 96.2014 33.4883 88.5071V46.712C33.4883 39.0177 39.7257 32.7803 47.42 32.7803ZM95.1505 94.4425C96.7246 92.8683 97.609 90.7333 97.609 88.5071V46.712C97.609 44.4858 96.7246 42.3508 95.1505 40.7766C93.5763 39.2025 91.4413 38.3181 89.2151 38.3181H47.42C42.7842 38.3181 39.0261 42.0762 39.0261 46.712V88.5071C39.0261 90.7333 39.9105 92.8683 41.4846 94.4425C43.0588 96.0166 45.1938 96.901 47.42 96.901H89.2151C91.4413 96.901 93.5763 96.0166 95.1505 94.4425Z" fill="black"/>
<path d="M82.2493 64.9973H70.9297V53.6778C70.9297 52.2352 69.7602 51.0656 68.3176 51.0656C66.8749 51.0656 65.7054 52.2352 65.7054 53.6778V64.9973H54.3858C52.9432 64.9973 51.7736 66.1669 51.7736 67.6095C51.7736 69.0522 52.9432 70.2217 54.3858 70.2217H65.7054V81.5412C65.7054 82.9839 66.8749 84.1534 68.3176 84.1534C69.7602 84.1534 70.9297 82.9839 70.9297 81.5412V70.2217H82.2493C83.6919 70.2217 84.8615 69.0522 84.8615 67.6095C84.8615 66.1669 83.6919 64.9973 82.2493 64.9973Z" fill="black"/>
</svg>
