<svg width="63" height="57" viewBox="0 0 63 57" fill="none" xmlns="http://www.w3.org/2000/svg">
<path d="M3.31641 53.7867V48.1467C3.31641 42.8906 6.91129 38.4742 11.7765 37.222M21.6465 3.84631C17.5126 5.51968 14.5965 9.57251 14.5965 14.3064C14.5965 19.0404 17.5126 23.0932 21.6465 24.7666M17.4165 53.7867C17.4165 48.5309 17.4165 45.9029 18.2751 43.83C19.42 41.066 21.6159 38.8701 24.3799 37.7252C26.4528 36.8666 29.0808 36.8666 34.3366 36.8666H42.7967C48.0525 36.8666 50.6805 36.8666 52.7534 37.7252C55.5174 38.8701 57.7133 41.066 58.8582 43.83C59.7168 45.9029 59.7168 48.5309 59.7168 53.7867M27.2866 14.3064C27.2866 20.5363 32.3368 25.5865 38.5667 25.5865C44.7965 25.5865 49.8467 20.5363 49.8467 14.3064C49.8467 8.07663 44.7965 3.02637 38.5667 3.02637C32.3368 3.02637 27.2866 8.07663 27.2866 14.3064Z" stroke="#757575" stroke-width="5.64004" stroke-linecap="round" stroke-linejoin="round"/>
</svg>
