<svg width="75" height="75" viewBox="0 0 75 75" fill="none" xmlns="http://www.w3.org/2000/svg">
<path d="M30.5483 27.1624C30.5483 25.1744 31.2898 23.903 32.2633 23.077C33.3104 22.1886 34.8272 21.6587 36.4754 21.6587C38.1235 21.6587 39.6404 22.1886 40.6874 23.077C41.6609 23.903 42.4024 25.1744 42.4024 27.1624C42.4024 28.643 42.0535 29.4651 41.6482 30.073C41.1754 30.7822 40.5532 31.3415 39.501 32.2874L39.29 32.4771C38.2075 33.4513 36.7835 34.7683 35.6976 36.6866C34.5786 38.6635 33.9352 41.0523 33.9352 44.0968C33.9352 45.9673 35.4516 47.4837 37.3221 47.4837C39.1926 47.4837 40.709 45.9673 40.709 44.0968C40.709 42.061 41.1239 40.8512 41.5925 40.0234C42.0943 39.1369 42.787 38.4429 43.8214 37.512C43.9145 37.4282 44.0126 37.3407 44.115 37.2495C45.0405 36.4245 46.3083 35.2945 47.2843 33.8304C48.4667 32.0569 49.1762 29.9154 49.1762 27.1624C49.1762 23.2234 47.5892 20.0495 45.0699 17.912C42.6243 15.8369 39.4841 14.885 36.4754 14.885C33.4666 14.885 30.3264 15.8369 27.8808 17.912C25.3615 20.0495 23.7746 23.2234 23.7746 27.1624C23.7746 29.0329 25.2909 30.5493 27.1614 30.5493C29.032 30.5493 30.5483 29.0329 30.5483 27.1624Z" fill="#757575"/>
<path d="M39.862 59.9193C41.1203 58.5352 41.0183 56.3932 39.6343 55.1349C38.2502 53.8766 36.1082 53.9786 34.8499 55.3626L34.816 55.3999C33.5578 56.7839 33.6597 58.9259 35.0438 60.1842C36.4278 61.4425 38.5698 61.3406 39.8281 59.9565L39.862 59.9193Z" fill="#757575"/>
<path fill-rule="evenodd" clip-rule="evenodd" d="M37.3221 0.0673828C16.7458 0.0673828 0.0664062 16.7468 0.0664062 37.3231C0.0664062 57.8993 16.7458 74.5787 37.3221 74.5787C57.8983 74.5787 74.5778 57.8993 74.5778 37.3231C74.5778 16.7468 57.8983 0.0673828 37.3221 0.0673828ZM6.84016 37.3231C6.84016 20.4878 20.4869 6.84114 37.3221 6.84114C54.1573 6.84114 67.804 20.4878 67.804 37.3231C67.804 54.1583 54.1573 67.805 37.3221 67.805C20.4869 67.805 6.84016 54.1583 6.84016 37.3231Z" fill="#757575"/>
</svg>
