<svg width="82" height="82" viewBox="0 0 82 82" fill="none" xmlns="http://www.w3.org/2000/svg">
<path d="M24.5609 7.41699C21.8734 7.41699 19.296 8.48459 17.3957 10.3849C15.4953 12.2853 14.4277 14.8627 14.4277 17.5501V64.8382C14.4277 67.5257 15.4953 70.1031 17.3957 72.0034C19.296 73.9037 21.8734 74.9713 24.5609 74.9713H58.3381C61.0255 74.9713 63.6029 73.9037 65.5033 72.0034C67.4036 70.1031 68.4712 67.5257 68.4712 64.8382V61.4605C68.4712 59.595 66.959 58.0828 65.0935 58.0828C63.228 58.0828 61.7158 59.595 61.7158 61.4605V64.8382C61.7158 65.734 61.3599 66.5931 60.7265 67.2266C60.093 67.86 59.2339 68.2159 58.3381 68.2159H24.5609C23.6651 68.2159 22.8059 67.86 22.1725 67.2266C21.539 66.5931 21.1832 65.734 21.1832 64.8382V17.5501C21.1832 16.6543 21.539 15.7952 22.1725 15.1617C22.8059 14.5283 23.6651 14.1724 24.5609 14.1724H58.3381C59.2339 14.1724 60.093 14.5283 60.7265 15.1617C61.3599 15.7952 61.7158 16.6543 61.7158 17.5501V20.9279C61.7158 22.7933 63.228 24.3056 65.0935 24.3056C66.959 24.3056 68.4712 22.7933 68.4712 20.9279V17.5501C68.4712 14.8627 67.4036 12.2853 65.5033 10.3849C63.6029 8.48459 61.0255 7.41699 58.3381 7.41699H24.5609Z" fill="#5441CB"/>
<path d="M57.3488 28.6726C56.0297 27.3535 53.891 27.3535 52.5719 28.6726C51.2529 29.9917 51.2529 32.1303 52.5719 33.4494L56.939 37.8164H41.4495C39.584 37.8164 38.0718 39.3287 38.0718 41.1942C38.0718 43.0596 39.584 44.5719 41.4495 44.5719H56.939L52.5719 48.9389C51.2529 50.258 51.2529 52.3966 52.5719 53.7157C53.891 55.0348 56.0297 55.0348 57.3488 53.7157L67.4819 43.5826C68.801 42.2635 68.801 40.1248 67.4819 38.8058L57.3488 28.6726Z" fill="#5441CB"/>
</svg>
