<svg width="75" height="75" viewBox="0 0 75 75" fill="none" xmlns="http://www.w3.org/2000/svg">
<path fill-rule="evenodd" clip-rule="evenodd" d="M37.4508 23.768C33.8675 23.768 30.4309 25.1915 27.8972 27.7253C25.3634 30.2591 23.9399 33.6956 23.9399 37.2789C23.9399 40.8622 25.3634 44.2988 27.8972 46.8325C30.4309 49.3663 33.8675 50.7898 37.4508 50.7898C41.0341 50.7898 44.4706 49.3663 47.0044 46.8325C49.5382 44.2988 50.9617 40.8622 50.9617 37.2789C50.9617 33.6956 49.5382 30.2591 47.0044 27.7253C44.4706 25.1915 41.0341 23.768 37.4508 23.768ZM32.674 32.5021C33.9409 31.2352 35.6591 30.5235 37.4508 30.5235C39.2424 30.5235 40.9607 31.2352 42.2276 32.5021C43.4945 33.769 44.2062 35.4873 44.2062 37.2789C44.2062 39.0706 43.4945 40.7888 42.2276 42.0557C40.9607 43.3226 39.2424 44.0343 37.4508 44.0343C35.6591 44.0343 33.9409 43.3226 32.674 42.0557C31.4071 40.7888 30.6954 39.0706 30.6954 37.2789C30.6954 35.4873 31.4071 33.769 32.674 32.5021Z" fill="#757575"/>
<path fill-rule="evenodd" clip-rule="evenodd" d="M34.0089 0.124023C32.4746 0.124023 31.133 1.15816 30.7424 2.64193L29.0308 9.14471L23.5925 11.4372L19.4296 7.73362C18.093 6.54449 16.0611 6.60376 14.7961 7.86877L8.04064 14.6242C6.81689 15.848 6.71607 17.7987 7.80715 19.1421L11.4555 23.6341L9.21827 29.1382L2.9057 30.6119C1.37718 30.9688 0.295898 32.3316 0.295898 33.9012V40.6566C0.295898 42.1797 1.31525 43.5144 2.78465 43.9153L9.30932 45.6952L11.608 51.1482L7.90812 55.2971C6.71642 56.6335 6.77456 58.6675 8.04064 59.9336L14.7961 66.6891C16.0215 67.9145 17.9755 68.0137 19.3187 66.9187L23.8092 63.2581L29.1779 65.4666L30.7981 71.883C31.1769 73.3829 32.5261 74.4338 34.0731 74.4338H40.8285C42.3748 74.4338 43.7237 73.3837 44.103 71.8847L45.7273 65.4654L51.2757 63.1674C51.8342 63.6355 52.4746 64.1854 53.1118 64.7403C53.745 65.2917 54.3335 65.8112 54.7641 66.1934C54.9792 66.3843 55.1544 66.5404 55.2755 66.6485L55.4589 66.8126C56.7946 68.0109 58.8366 67.9579 60.1055 66.6891L66.8609 59.9336C68.1041 58.6904 68.1858 56.7015 67.0487 55.3606L63.3693 51.0218L65.6461 45.5226L72.0774 43.8515C73.5663 43.4646 74.6057 42.1206 74.6057 40.5823V33.9012C74.6057 32.3565 73.5578 31.0086 72.0608 30.6278L65.6691 29.0016L63.3982 23.5159L67.0521 19.1931C68.1858 17.852 68.1026 15.8659 66.8609 14.6242L60.1055 7.86877C58.8587 6.622 56.8627 6.54397 55.5224 7.68959L51.2316 11.3572L45.5526 9.02226L43.8757 2.64302C43.4855 1.15871 42.1437 0.124023 40.609 0.124023H34.0089ZM59.8841 57.3568L57.5733 59.6676L57.548 59.6456C56.3006 58.5595 54.6936 57.1849 53.7874 56.537C52.8389 55.8589 51.6077 55.7179 50.5305 56.1641L41.5761 59.8728C40.5906 60.281 39.8558 61.1308 39.5941 62.1649L38.199 67.6784H36.7039L35.3112 62.1631C35.0492 61.1255 34.311 60.2735 33.3213 59.8663L24.519 56.2454C23.3728 55.7739 22.0604 55.968 21.0998 56.7511L17.4153 59.7547L15.0731 57.4125L18.0706 54.0512C18.9384 53.0781 19.1686 51.6925 18.6621 50.491L14.896 41.557C14.493 40.6011 13.6732 39.8834 12.6725 39.6104L7.05133 38.0769V36.5812L12.4569 35.3192C13.5247 35.0699 14.4051 34.3177 14.818 33.3018L18.466 24.3272C18.9299 23.1858 18.7356 21.8823 17.9588 20.9259L14.9711 17.2473L17.3199 14.8986L20.695 17.9014C21.668 18.767 23.0521 18.9962 24.2522 18.4903L33.1862 14.7241C34.1519 14.317 34.8739 13.4849 35.1406 12.4714L36.6126 6.87946H38.0044L39.4465 12.3657C39.7157 13.3897 40.4495 14.2283 41.4288 14.6309L50.5723 18.3903C51.7445 18.8723 53.0879 18.6574 54.0514 17.8339L57.5374 14.8543L59.8876 17.2045L56.9108 20.7262C56.095 21.6913 55.8862 23.0311 56.3695 24.1987L60.0749 33.1496C60.4824 34.134 61.3304 34.8684 62.3629 35.1311L67.8502 36.5272V37.9701L62.3192 39.4073C61.294 39.6738 60.4531 40.4057 60.0479 41.3844L56.3392 50.3421C55.855 51.5115 56.0652 52.8535 56.8838 53.8188L59.8841 57.3568Z" fill="#757575"/>
</svg>
