<svg width="255" height="26" viewBox="0 0 255 26" fill="none" xmlns="http://www.w3.org/2000/svg">
<path d="M70.0077 21.0725L75.8226 24.7645C76.5725 25.2375 77.4956 24.5337 77.2763 23.6684L75.5919 17.0458C75.5463 16.8623 75.5535 16.6696 75.6127 16.4899C75.6719 16.3103 75.7807 16.151 75.9264 16.0305L81.1414 11.6808C81.8222 11.1155 81.476 9.97328 80.5876 9.91559L73.7804 9.47716C73.5947 9.46635 73.4161 9.40168 73.2666 9.29103C73.117 9.18039 73.0029 9.02857 72.9382 8.85413L70.3999 2.4623C70.3327 2.27759 70.2103 2.11802 70.0493 2.00527C69.8883 1.89251 69.6966 1.83203 69.5 1.83203C69.3034 1.83203 69.1117 1.89251 68.9507 2.00527C68.7897 2.11802 68.6673 2.27759 68.6001 2.4623L66.0618 8.85413C65.9971 9.02857 65.883 9.18039 65.7334 9.29103C65.5839 9.40168 65.4053 9.46635 65.2196 9.47716L58.4124 9.91559C57.524 9.97328 57.1778 11.1155 57.8586 11.6808L63.0736 16.0305C63.2193 16.151 63.3281 16.3103 63.3873 16.4899C63.4465 16.6696 63.4537 16.8623 63.4081 17.0458L61.8506 23.1838C61.5852 24.2222 62.6928 25.0645 63.5812 24.4991L68.9923 21.0725C69.1441 20.976 69.3202 20.9247 69.5 20.9247C69.6798 20.9247 69.8559 20.976 70.0077 21.0725Z" fill="#F8D57E" stroke="#F8D57E" stroke-width="2" stroke-linecap="round" stroke-linejoin="round"/>
<path d="M99.0077 21.0725L104.823 24.7645C105.573 25.2375 106.496 24.5337 106.276 23.6684L104.592 17.0458C104.546 16.8623 104.554 16.6696 104.613 16.4899C104.672 16.3103 104.781 16.151 104.926 16.0305L110.141 11.6808C110.822 11.1155 110.476 9.97328 109.588 9.91559L102.78 9.47716C102.595 9.46635 102.416 9.40168 102.267 9.29103C102.117 9.18039 102.003 9.02857 101.938 8.85413L99.3999 2.4623C99.3327 2.27759 99.2103 2.11802 99.0493 2.00527C98.8883 1.89251 98.6966 1.83203 98.5 1.83203C98.3034 1.83203 98.1117 1.89251 97.9507 2.00527C97.7897 2.11802 97.6673 2.27759 97.6001 2.4623L95.0618 8.85413C94.9971 9.02857 94.883 9.18039 94.7334 9.29103C94.5839 9.40168 94.4053 9.46635 94.2196 9.47716L87.4124 9.91559C86.524 9.97328 86.1778 11.1155 86.8586 11.6808L92.0736 16.0305C92.2193 16.151 92.3281 16.3103 92.3873 16.4899C92.4465 16.6696 92.4537 16.8623 92.4081 17.0458L90.8506 23.1838C90.5852 24.2222 91.6928 25.0645 92.5812 24.4991L97.9923 21.0725C98.1441 20.976 98.3202 20.9247 98.5 20.9247C98.6798 20.9247 98.8559 20.976 99.0077 21.0725Z" fill="#F8D57E" stroke="#F8D57E" stroke-width="2" stroke-linecap="round" stroke-linejoin="round"/>
<path d="M128.008 21.0725L133.823 24.7645C134.573 25.2375 135.496 24.5337 135.276 23.6684L133.592 17.0458C133.546 16.8623 133.554 16.6696 133.613 16.4899C133.672 16.3103 133.781 16.151 133.926 16.0305L139.141 11.6808C139.822 11.1155 139.476 9.97328 138.588 9.91559L131.78 9.47716C131.595 9.46635 131.416 9.40168 131.267 9.29103C131.117 9.18039 131.003 9.02857 130.938 8.85413L128.4 2.4623C128.333 2.27759 128.21 2.11802 128.049 2.00527C127.888 1.89251 127.697 1.83203 127.5 1.83203C127.303 1.83203 127.112 1.89251 126.951 2.00527C126.79 2.11802 126.667 2.27759 126.6 2.4623L124.062 8.85413C123.997 9.02857 123.883 9.18039 123.733 9.29103C123.584 9.40168 123.405 9.46635 123.22 9.47716L116.412 9.91559C115.524 9.97328 115.178 11.1155 115.859 11.6808L121.074 16.0305C121.219 16.151 121.328 16.3103 121.387 16.4899C121.446 16.6696 121.454 16.8623 121.408 17.0458L119.851 23.1838C119.585 24.2222 120.693 25.0645 121.581 24.4991L126.992 21.0725C127.144 20.976 127.32 20.9247 127.5 20.9247C127.68 20.9247 127.856 20.976 128.008 21.0725Z" fill="#F8D57E" stroke="#F8D57E" stroke-width="2" stroke-linecap="round" stroke-linejoin="round"/>
<path d="M157.008 21.0725L162.823 24.7645C163.573 25.2375 164.496 24.5337 164.276 23.6684L162.592 17.0458C162.546 16.8623 162.554 16.6696 162.613 16.4899C162.672 16.3103 162.781 16.151 162.926 16.0305L168.141 11.6808C168.822 11.1155 168.476 9.97328 167.588 9.91559L160.78 9.47716C160.595 9.46635 160.416 9.40168 160.267 9.29103C160.117 9.18039 160.003 9.02857 159.938 8.85413L157.4 2.4623C157.333 2.27759 157.21 2.11802 157.049 2.00527C156.888 1.89251 156.697 1.83203 156.5 1.83203C156.303 1.83203 156.112 1.89251 155.951 2.00527C155.79 2.11802 155.667 2.27759 155.6 2.4623L153.062 8.85413C152.997 9.02857 152.883 9.18039 152.733 9.29103C152.584 9.40168 152.405 9.46635 152.22 9.47716L145.412 9.91559C144.524 9.97328 144.178 11.1155 144.859 11.6808L150.074 16.0305C150.219 16.151 150.328 16.3103 150.387 16.4899C150.446 16.6696 150.454 16.8623 150.408 17.0458L148.851 23.1838C148.585 24.2222 149.693 25.0645 150.581 24.4991L155.992 21.0725C156.144 20.976 156.32 20.9247 156.5 20.9247C156.68 20.9247 156.856 20.976 157.008 21.0725Z" fill="#F8D57E" stroke="#F8D57E" stroke-width="2" stroke-linecap="round" stroke-linejoin="round"/>
<path d="M186.008 21.0725L191.823 24.7645C192.573 25.2375 193.496 24.5337 193.276 23.6684L191.592 17.0458C191.546 16.8623 191.554 16.6696 191.613 16.4899C191.672 16.3103 191.781 16.151 191.926 16.0305L197.141 11.6808C197.822 11.1155 197.476 9.97328 196.588 9.91559L189.78 9.47716C189.595 9.46635 189.416 9.40168 189.267 9.29103C189.117 9.18039 189.003 9.02857 188.938 8.85413L186.4 2.4623C186.333 2.27759 186.21 2.11802 186.049 2.00527C185.888 1.89251 185.697 1.83203 185.5 1.83203C185.303 1.83203 185.112 1.89251 184.951 2.00527C184.79 2.11802 184.667 2.27759 184.6 2.4623L182.062 8.85413C181.997 9.02857 181.883 9.18039 181.733 9.29103C181.584 9.40168 181.405 9.46635 181.22 9.47716L174.412 9.91559C173.524 9.97328 173.178 11.1155 173.859 11.6808L179.074 16.0305C179.219 16.151 179.328 16.3103 179.387 16.4899C179.446 16.6696 179.454 16.8623 179.408 17.0458L177.851 23.1838C177.585 24.2222 178.693 25.0645 179.581 24.4991L184.992 21.0725C185.144 20.976 185.32 20.9247 185.5 20.9247C185.68 20.9247 185.856 20.976 186.008 21.0725Z" fill="#F8D57E" stroke="#F8D57E" stroke-width="2" stroke-linecap="round" stroke-linejoin="round"/>
</svg>
