<svg xmlns="http://www.w3.org/2000/svg" xmlns:xlink="http://www.w3.org/1999/xlink" width="180" zoomAndPan="magnify" viewBox="0 0 135 135.000003" height="180" preserveAspectRatio="xMidYMid meet" version="1.0"><defs><clipPath id="f2dbf054da"><path d="M 8.117188 7.621094 L 126.882812 7.621094 L 126.882812 126.386719 L 8.117188 126.386719 Z M 8.117188 7.621094 " clip-rule="nonzero"/></clipPath><clipPath id="5ee0292b6f"><path d="M 14.816406 7.621094 L 120.183594 7.621094 C 121.960938 7.621094 123.664062 8.328125 124.921875 9.582031 C 126.175781 10.839844 126.882812 12.542969 126.882812 14.320312 L 126.882812 119.6875 C 126.882812 121.464844 126.175781 123.167969 124.921875 124.425781 C 123.664062 125.679688 121.960938 126.386719 120.183594 126.386719 L 14.816406 126.386719 C 13.039062 126.386719 11.335938 125.679688 10.078125 124.425781 C 8.824219 123.167969 8.117188 121.464844 8.117188 119.6875 L 8.117188 14.320312 C 8.117188 12.542969 8.824219 10.839844 10.078125 9.582031 C 11.335938 8.328125 13.039062 7.621094 14.816406 7.621094 Z M 14.816406 7.621094 " clip-rule="nonzero"/></clipPath><clipPath id="92b119a8b9"><path d="M 31 30.136719 L 104.335938 30.136719 L 104.335938 103.839844 L 31 103.839844 Z M 31 30.136719 " clip-rule="nonzero"/></clipPath></defs><g clip-path="url(#f2dbf054da)"><g clip-path="url(#5ee0292b6f)"><path fill="#706f6f" d="M 8.117188 7.621094 L 126.882812 7.621094 L 126.882812 126.386719 L 8.117188 126.386719 Z M 8.117188 7.621094 " fill-opacity="1" fill-rule="nonzero"/></g></g><g clip-path="url(#92b119a8b9)"><path fill="#d1cece" d="M 47.4375 50.335938 C 47.4375 49.675781 47.472656 49.015625 47.535156 48.359375 C 47.601562 47.703125 47.699219 47.050781 47.828125 46.402344 C 47.957031 45.753906 48.117188 45.117188 48.308594 44.484375 C 48.503906 43.851562 48.726562 43.230469 48.976562 42.621094 C 49.230469 42.011719 49.511719 41.414062 49.824219 40.832031 C 50.136719 40.25 50.476562 39.6875 50.84375 39.136719 C 51.207031 38.589844 51.601562 38.058594 52.019531 37.546875 C 52.441406 37.039062 52.882812 36.550781 53.347656 36.082031 C 53.816406 35.617188 54.304688 35.171875 54.816406 34.753906 C 55.324219 34.335938 55.855469 33.941406 56.402344 33.574219 C 56.953125 33.207031 57.519531 32.867188 58.101562 32.558594 C 58.683594 32.246094 59.277344 31.964844 59.886719 31.710938 C 60.496094 31.457031 61.117188 31.234375 61.75 31.042969 C 62.382812 30.851562 63.019531 30.691406 63.667969 30.5625 C 64.316406 30.429688 64.96875 30.332031 65.625 30.269531 C 66.28125 30.203125 66.941406 30.167969 67.601562 30.167969 C 94.25 31.113281 94.304688 69.472656 67.667969 70.496094 C 67.007812 70.5 66.347656 70.46875 65.6875 70.40625 C 65.03125 70.339844 64.375 70.246094 63.726562 70.117188 C 63.078125 69.992188 62.4375 69.832031 61.804688 69.640625 C 61.167969 69.449219 60.546875 69.230469 59.933594 68.976562 C 59.324219 68.726562 58.726562 68.445312 58.140625 68.132812 C 57.558594 67.820312 56.988281 67.484375 56.4375 67.117188 C 55.886719 66.75 55.355469 66.359375 54.84375 65.9375 C 54.332031 65.519531 53.84375 65.078125 53.375 64.609375 C 52.90625 64.144531 52.460938 63.65625 52.039062 63.144531 C 51.617188 62.632812 51.226562 62.101562 50.855469 61.554688 C 50.488281 61.003906 50.148438 60.4375 49.835938 59.855469 C 49.523438 59.269531 49.238281 58.675781 48.984375 58.0625 C 48.730469 57.453125 48.507812 56.832031 48.3125 56.199219 C 48.121094 55.566406 47.960938 54.925781 47.832031 54.277344 C 47.699219 53.625 47.601562 52.972656 47.535156 52.316406 C 47.472656 51.65625 47.4375 50.996094 47.4375 50.335938 Z M 88.007812 70.507812 C 87.460938 70.171875 86.863281 70.011719 86.222656 70.027344 C 85.578125 70.042969 84.992188 70.230469 84.460938 70.59375 C 83.253906 71.570312 81.976562 72.4375 80.625 73.195312 C 79.269531 73.953125 77.863281 74.585938 76.402344 75.101562 C 74.9375 75.613281 73.441406 75.996094 71.914062 76.253906 C 70.382812 76.507812 68.84375 76.628906 67.292969 76.617188 C 65.742188 76.609375 64.207031 76.464844 62.679688 76.1875 C 61.15625 75.910156 59.664062 75.507812 58.210938 74.972656 C 56.753906 74.4375 55.355469 73.785156 54.011719 73.007812 C 52.671875 72.234375 51.40625 71.347656 50.214844 70.355469 C 49.761719 70.144531 49.285156 70.054688 48.785156 70.078125 C 48.285156 70.105469 47.820312 70.246094 47.390625 70.503906 C 46.148438 71.328125 44.964844 72.226562 43.835938 73.195312 C 42.703125 74.167969 41.640625 75.207031 40.636719 76.308594 C 39.636719 77.410156 38.707031 78.570312 37.847656 79.789062 C 36.988281 81.007812 36.207031 82.273438 35.503906 83.585938 C 34.800781 84.898438 34.183594 86.25 33.648438 87.640625 C 33.113281 89.03125 32.664062 90.449219 32.300781 91.894531 C 31.941406 93.339844 31.671875 94.800781 31.488281 96.28125 C 31.308594 97.761719 31.21875 99.246094 31.222656 100.734375 C 31.222656 101.144531 31.300781 101.539062 31.457031 101.921875 C 31.613281 102.300781 31.839844 102.636719 32.128906 102.925781 C 32.421875 103.214844 32.753906 103.441406 33.132812 103.597656 C 33.515625 103.753906 33.910156 103.832031 34.320312 103.832031 L 100.984375 103.832031 C 101.394531 103.832031 101.789062 103.753906 102.167969 103.597656 C 102.546875 103.441406 102.882812 103.214844 103.175781 102.925781 C 103.464844 102.636719 103.6875 102.300781 103.847656 101.921875 C 104.003906 101.539062 104.082031 101.144531 104.082031 100.734375 C 104.082031 99.246094 103.988281 97.765625 103.804688 96.292969 C 103.625 94.816406 103.355469 93.359375 102.992188 91.914062 C 102.632812 90.472656 102.1875 89.058594 101.652344 87.671875 C 101.121094 86.28125 100.503906 84.933594 99.808594 83.621094 C 99.109375 82.308594 98.335938 81.042969 97.480469 79.824219 C 96.628906 78.605469 95.707031 77.445312 94.710938 76.339844 C 93.71875 75.234375 92.660156 74.195312 91.539062 73.21875 C 90.417969 72.242188 89.238281 71.339844 88.007812 70.507812 Z M 88.007812 70.507812 " fill-opacity="1" fill-rule="nonzero"/></g></svg>