<svg width="3094" height="751" viewBox="0 0 3094 751" fill="none" xmlns="http://www.w3.org/2000/svg">
<path d="M104.539 734.585V492.065H366C532.15 492.065 635.871 422.665 635.871 275.911C635.871 118.095 513.664 71.8025 347.968 71.8025H0.363281V734.585H104.539ZM104.539 153.779H359.105C460.932 153.779 525.71 180.145 525.71 277.35C525.71 374.479 457.674 410.619 360.469 410.619H104.539V153.779Z" fill="white"/>
<path d="M859.878 734.583V65.3604H759.415V734.583H859.878Z" fill="white"/>
<path d="M1216.65 750.796C1337.95 750.796 1422.65 704.959 1462.88 629.044C1463.34 662.834 1467.05 706.323 1469.4 734.583H1569.33C1560.54 686.473 1561.45 633.211 1561.45 575.403V468.955C1561.45 310.608 1484.63 245.83 1304.16 245.83C1236.58 245.83 1133.84 253.71 1040.35 311.593L1071.79 382.357C1150.06 337.959 1248.17 325.003 1295.83 325.003C1408.71 325.458 1461.52 350.914 1461.52 431.451V435.619C1078.31 434.709 1004.29 495.775 1004.29 611.012C1004.29 702.686 1081.56 750.796 1216.65 750.796ZM1243.09 680.412C1156.95 680.412 1109.29 656.395 1109.29 601.314C1109.29 516.61 1195.36 508.276 1461.52 504.109V514.261C1461.52 609.648 1349.01 680.412 1243.09 680.412Z" fill="white"/>
<path d="M1828.03 734.583V515.171C1828.03 386.069 1927.13 322.2 2028.42 322.2C2142.75 322.2 2192.3 394.403 2192.3 502.745V734.583H2292.23V497.594C2292.23 343.035 2232.99 245.83 2063.2 245.83C1955.77 245.83 1864.62 296.289 1826.67 375.462V262.044H1727.64V734.583H1828.03Z" fill="white"/>
<path d="M2570.5 -1237.09L2616.35 -1137.28H2511.26L2570.5 -1237.09ZM2614 -474.5V-947.04H2513.61V-474.5H2614Z" fill="white"/>
<path d="M2961.94 748.447C3004.52 748.447 3047.55 747.538 3093.85 744.28V671.168H2989.75C2914.29 671.168 2879.59 634.65 2879.59 550.401V335.156H3076.27V262.043H2879.59V65.3604H2780.11V262.043H2685.63V335.156H2780.11V552.674C2780.11 663.289 2830.94 748.447 2961.94 748.447Z" fill="white"/>
<rect x="2445" y="260" width="99" height="475" fill="white"/>
<mask id="mask0_26_2651" style="mask-type:alpha" maskUnits="userSpaceOnUse" x="2443" y="23" width="274" height="281">
<ellipse cx="2580" cy="163.568" rx="118.119" ry="155.549" transform="rotate(42.2189 2580 163.568)" fill="black"/>
<ellipse cx="2580" cy="163.568" rx="118.119" ry="155.549" transform="rotate(42.2189 2580 163.568)" fill="black"/>
<ellipse cx="2580" cy="163.568" rx="118.119" ry="155.549" transform="rotate(42.2189 2580 163.568)" fill="black"/>
</mask>
<g mask="url(#mask0_26_2651)">
<path d="M2579.59 163.617C2521.87 227.239 2435.91 243.278 2387.59 199.442C2339.28 155.607 2346.91 68.4953 2404.64 4.87392C2462.37 -58.7474 2548.33 -74.7868 2596.64 -30.951C2644.95 12.8848 2637.32 99.9961 2579.59 163.617Z" fill="white"/>
<path d="M2579.59 163.617C2521.87 227.239 2435.91 243.278 2387.59 199.442C2339.28 155.607 2346.91 68.4953 2404.64 4.87392C2462.37 -58.7474 2548.33 -74.7868 2596.64 -30.951C2644.95 12.8848 2637.32 99.9961 2579.59 163.617Z" fill="white"/>
<path d="M2579.59 163.617C2521.87 227.239 2435.91 243.278 2387.59 199.442C2339.28 155.607 2346.91 68.4953 2404.64 4.87392C2462.37 -58.7474 2548.33 -74.7868 2596.64 -30.951C2644.95 12.8848 2637.32 99.9961 2579.59 163.617Z" fill="white"/>
</g>
</svg>
